<mxfile host="app.diagrams.net" modified="2022-05-26T14:40:52.842Z" agent="5.0 (Windows NT 10.0; Win64; x64) AppleWebKit/537.36 (KHTML, like Gecko) Chrome/85.0.4183.83 Safari/537.36" etag="gA_-eN4vzOD8H3Tjij6v" version="18.1.2" type="github">
  <diagram id="Wd26jXFsgFDWFj-va9AC" name="第 1 页">
    <mxGraphModel dx="1208" dy="928" grid="0" gridSize="10" guides="1" tooltips="1" connect="1" arrows="1" fold="1" page="0" pageScale="1" pageWidth="827" pageHeight="1169" math="0" shadow="0">
      <root>
        <mxCell id="0" />
        <mxCell id="1" parent="0" />
        <mxCell id="CzC6wXrIJO8HGLkusd6--9" style="edgeStyle=orthogonalEdgeStyle;rounded=0;orthogonalLoop=1;jettySize=auto;html=1;fontSize=50;" edge="1" parent="1" source="CzC6wXrIJO8HGLkusd6--1">
          <mxGeometry relative="1" as="geometry">
            <mxPoint x="392" y="784.3333740234375" as="targetPoint" />
          </mxGeometry>
        </mxCell>
        <mxCell id="CzC6wXrIJO8HGLkusd6--10" style="rounded=0;orthogonalLoop=1;jettySize=auto;html=1;exitX=1;exitY=1;exitDx=0;exitDy=0;entryX=0;entryY=0;entryDx=0;entryDy=0;fontSize=50;" edge="1" parent="1" source="CzC6wXrIJO8HGLkusd6--1" target="CzC6wXrIJO8HGLkusd6--3">
          <mxGeometry relative="1" as="geometry" />
        </mxCell>
        <mxCell id="CzC6wXrIJO8HGLkusd6--1" value="&lt;font style=&quot;font-size: 50px;&quot;&gt;1&lt;/font&gt;" style="ellipse;whiteSpace=wrap;html=1;aspect=fixed;" vertex="1" parent="1">
          <mxGeometry x="352" y="168" width="80" height="80" as="geometry" />
        </mxCell>
        <mxCell id="CzC6wXrIJO8HGLkusd6--11" style="edgeStyle=none;rounded=0;orthogonalLoop=1;jettySize=auto;html=1;entryX=0.5;entryY=0;entryDx=0;entryDy=0;fontSize=50;" edge="1" parent="1" source="CzC6wXrIJO8HGLkusd6--3" target="CzC6wXrIJO8HGLkusd6--5">
          <mxGeometry relative="1" as="geometry" />
        </mxCell>
        <mxCell id="CzC6wXrIJO8HGLkusd6--14" style="edgeStyle=none;rounded=0;orthogonalLoop=1;jettySize=auto;html=1;exitX=1;exitY=0.5;exitDx=0;exitDy=0;entryX=0;entryY=0.5;entryDx=0;entryDy=0;fontSize=50;" edge="1" parent="1" source="CzC6wXrIJO8HGLkusd6--3" target="CzC6wXrIJO8HGLkusd6--4">
          <mxGeometry relative="1" as="geometry" />
        </mxCell>
        <mxCell id="CzC6wXrIJO8HGLkusd6--3" value="&lt;font style=&quot;font-size: 50px;&quot;&gt;2&lt;/font&gt;" style="ellipse;whiteSpace=wrap;html=1;aspect=fixed;" vertex="1" parent="1">
          <mxGeometry x="490" y="293" width="80" height="80" as="geometry" />
        </mxCell>
        <mxCell id="CzC6wXrIJO8HGLkusd6--21" style="edgeStyle=none;rounded=0;orthogonalLoop=1;jettySize=auto;html=1;exitX=1;exitY=1;exitDx=0;exitDy=0;entryX=0;entryY=0;entryDx=0;entryDy=0;fontSize=50;" edge="1" parent="1" source="CzC6wXrIJO8HGLkusd6--4" target="CzC6wXrIJO8HGLkusd6--18">
          <mxGeometry relative="1" as="geometry" />
        </mxCell>
        <mxCell id="CzC6wXrIJO8HGLkusd6--4" value="&lt;font style=&quot;font-size: 50px;&quot;&gt;3&lt;/font&gt;" style="ellipse;whiteSpace=wrap;html=1;aspect=fixed;" vertex="1" parent="1">
          <mxGeometry x="613" y="293" width="80" height="80" as="geometry" />
        </mxCell>
        <mxCell id="CzC6wXrIJO8HGLkusd6--12" style="edgeStyle=none;rounded=0;orthogonalLoop=1;jettySize=auto;html=1;fontSize=50;" edge="1" parent="1" source="CzC6wXrIJO8HGLkusd6--5" target="CzC6wXrIJO8HGLkusd6--6">
          <mxGeometry relative="1" as="geometry" />
        </mxCell>
        <mxCell id="CzC6wXrIJO8HGLkusd6--5" value="&lt;font style=&quot;font-size: 50px;&quot;&gt;4&lt;/font&gt;" style="ellipse;whiteSpace=wrap;html=1;aspect=fixed;" vertex="1" parent="1">
          <mxGeometry x="490" y="423" width="80" height="80" as="geometry" />
        </mxCell>
        <mxCell id="CzC6wXrIJO8HGLkusd6--13" style="edgeStyle=none;rounded=0;orthogonalLoop=1;jettySize=auto;html=1;exitX=0.5;exitY=1;exitDx=0;exitDy=0;entryX=0.5;entryY=0;entryDx=0;entryDy=0;fontSize=50;" edge="1" parent="1" source="CzC6wXrIJO8HGLkusd6--6" target="CzC6wXrIJO8HGLkusd6--7">
          <mxGeometry relative="1" as="geometry" />
        </mxCell>
        <mxCell id="CzC6wXrIJO8HGLkusd6--16" style="edgeStyle=none;rounded=0;orthogonalLoop=1;jettySize=auto;html=1;entryX=0;entryY=0.5;entryDx=0;entryDy=0;fontSize=50;" edge="1" parent="1" source="CzC6wXrIJO8HGLkusd6--6" target="CzC6wXrIJO8HGLkusd6--15">
          <mxGeometry relative="1" as="geometry" />
        </mxCell>
        <mxCell id="CzC6wXrIJO8HGLkusd6--6" value="&lt;font style=&quot;font-size: 50px;&quot;&gt;5&lt;/font&gt;" style="ellipse;whiteSpace=wrap;html=1;aspect=fixed;" vertex="1" parent="1">
          <mxGeometry x="490" y="569" width="80" height="80" as="geometry" />
        </mxCell>
        <mxCell id="CzC6wXrIJO8HGLkusd6--17" style="edgeStyle=none;rounded=0;orthogonalLoop=1;jettySize=auto;html=1;entryX=0;entryY=1;entryDx=0;entryDy=0;fontSize=50;" edge="1" parent="1" source="CzC6wXrIJO8HGLkusd6--7" target="CzC6wXrIJO8HGLkusd6--15">
          <mxGeometry relative="1" as="geometry" />
        </mxCell>
        <mxCell id="CzC6wXrIJO8HGLkusd6--19" style="edgeStyle=none;rounded=0;orthogonalLoop=1;jettySize=auto;html=1;exitX=1;exitY=1;exitDx=0;exitDy=0;entryX=0;entryY=1;entryDx=0;entryDy=0;fontSize=50;" edge="1" parent="1" source="CzC6wXrIJO8HGLkusd6--7" target="CzC6wXrIJO8HGLkusd6--18">
          <mxGeometry relative="1" as="geometry" />
        </mxCell>
        <mxCell id="CzC6wXrIJO8HGLkusd6--7" value="&lt;font style=&quot;font-size: 50px;&quot;&gt;6&lt;/font&gt;" style="ellipse;whiteSpace=wrap;html=1;aspect=fixed;" vertex="1" parent="1">
          <mxGeometry x="490" y="699" width="80" height="80" as="geometry" />
        </mxCell>
        <mxCell id="CzC6wXrIJO8HGLkusd6--8" value="&lt;font style=&quot;font-size: 50px;&quot;&gt;9&lt;/font&gt;" style="ellipse;whiteSpace=wrap;html=1;aspect=fixed;" vertex="1" parent="1">
          <mxGeometry x="354" y="787" width="80" height="80" as="geometry" />
        </mxCell>
        <mxCell id="CzC6wXrIJO8HGLkusd6--20" style="edgeStyle=none;rounded=0;orthogonalLoop=1;jettySize=auto;html=1;exitX=1;exitY=0.5;exitDx=0;exitDy=0;entryX=0;entryY=0.5;entryDx=0;entryDy=0;fontSize=50;" edge="1" parent="1" source="CzC6wXrIJO8HGLkusd6--15" target="CzC6wXrIJO8HGLkusd6--18">
          <mxGeometry relative="1" as="geometry" />
        </mxCell>
        <mxCell id="CzC6wXrIJO8HGLkusd6--15" value="&lt;font style=&quot;font-size: 50px;&quot;&gt;7&lt;/font&gt;" style="ellipse;whiteSpace=wrap;html=1;aspect=fixed;" vertex="1" parent="1">
          <mxGeometry x="653" y="619" width="80" height="80" as="geometry" />
        </mxCell>
        <mxCell id="CzC6wXrIJO8HGLkusd6--23" style="edgeStyle=orthogonalEdgeStyle;rounded=0;orthogonalLoop=1;jettySize=auto;html=1;fontSize=50;" edge="1" parent="1" source="CzC6wXrIJO8HGLkusd6--18">
          <mxGeometry relative="1" as="geometry">
            <mxPoint x="441" y="206" as="targetPoint" />
            <Array as="points">
              <mxPoint x="850" y="206" />
              <mxPoint x="441" y="206" />
            </Array>
          </mxGeometry>
        </mxCell>
        <mxCell id="CzC6wXrIJO8HGLkusd6--18" value="&lt;span style=&quot;font-size: 50px;&quot;&gt;8&lt;/span&gt;" style="ellipse;whiteSpace=wrap;html=1;aspect=fixed;" vertex="1" parent="1">
          <mxGeometry x="810" y="660" width="80" height="80" as="geometry" />
        </mxCell>
      </root>
    </mxGraphModel>
  </diagram>
</mxfile>
